<?xml version="1.0" encoding="UTF-8"?>
<svg id="Layer_1" data-name="Layer 1" xmlns="http://www.w3.org/2000/svg" viewBox="0 0 801 801">
  <defs>
    <style>
      .cls-1 {
        fill: #fff;
      }

      .cls-2 {
        fill: none;
        stroke: #497bbe;
        stroke-miterlimit: 10;
      }
    </style>
  </defs>
  <path class="cls-2" d="M.5.5h800v800H.5V.5Z"/>
  <path class="cls-1" d="M400.5,67.17c156.48,0,283.33,126.85,283.33,283.33,0,216.67-183.33,400-283.33,400S117.17,567.17,117.17,350.5c0-156.48,126.85-283.33,283.33-283.33ZM400.5,133.83c-119.66,0-216.67,97-216.67,216.67,0,159.8,138.83,333.33,216.67,333.33s216.67-173.53,216.67-333.33c0-119.66-97-216.67-216.67-216.67ZM583.83,367.17c5.33,0,10.63.27,15.83.83,8.75,82.38-50.94,156.25-133.32,165-10.53,1.12-21.15,1.12-31.68,0-8.74-82.38,50.95-156.25,133.33-165,5.26-.56,10.55-.84,15.84-.84ZM217.17,367.17c82.84,0,150,67.15,150,150,0,5.29-.28,10.58-.84,15.84-82.38,8.75-156.25-50.94-165-133.32-1.12-10.53-1.12-21.15,0-31.68,5.17-.57,10.5-.83,15.83-.83Z"/>
</svg>