<?xml version="1.0" encoding="UTF-8"?>
<svg id="Capa_1" xmlns="http://www.w3.org/2000/svg" version="1.1" viewBox="0 0 794.57 683">
  <!-- Generator: Adobe Illustrator 29.5.0, SVG Export Plug-In . SVG Version: 2.1.0 Build 137)  -->
  <defs>
    <style>
      .st0 {
        fill: #fff;
        stroke: #fff;
        stroke-miterlimit: 10;
        stroke-width: 22px;
      }
    </style>
  </defs>
  <path class="st0" d="M731.28,55c-14.61,0-26.53,13.47-26.53,30.09,0,6.12,1.72,12.11,4.9,17.16-5.06,10.28-13.02,22.39-23.75,26.55-10.61,4.03-23.38-.22-38.2-12.49-20.44-17-42.36-22.99-64.36-17.51-30.85,7.57-54.68,36.07-67.5,54.9-32.98-29.23-71.13-44.66-110.75-44.66-43.79,0-86.76,19.42-121.49,54.73-11.67-18.91-37.46-53.88-72.4-62.46-22.08-5.49-43.96.47-64.44,17.51-14.73,12.28-27.63,16.49-38.16,12.4-10.69-4.08-18.69-16.19-23.75-26.47,3.22-5.1,4.9-11.01,4.9-17.21,0-16.57-11.92-30.09-26.53-30.09s-26.54,13.43-26.54,30.09c0,13.3,7.88,25.07,18.94,28.85,7.79,17.34,21.39,39.05,42.98,47.38,20.49,7.9,43.13,2.04,66.48-17.34,13.35-11.13,26-14.83,39.47-11.56,28.49,6.93,51.25,43.64,57.34,54.39-24.16,32.93-41.34,73.72-49.87,118.51h-2.08c-51.38,0-84.89-10.79-85.37-18.27-.69-10.79-5.06-16.27-13.1-16.27h-1.79l-10.65,12.11-.04,1.62c-.98,29.45,19.01,150.08,129.69,162.27,30.32,81.24,85.33,176.77,176.42,176.77,98.6,0,154.67-115.45,179.76-186.07,106.22-15.59,125.41-132.87,124.43-161.42l-.65-13.38-12.04-.17c-7.88,0-12.25,5.44-12.94,16.27-.45,7.44-33.55,18.23-84.27,18.23-.98.47-2,0-2.98,0-10.29-47.17-30.2-89.28-57.86-122.29,10-15.34,28.85-39.26,51.42-44.75,13.42-3.32,26.2.47,39.5,11.56,23.35,19.38,45.99,25.24,66.48,17.34,21.59-8.33,35.13-30,42.98-47.38,11.1-3.74,18.94-15.51,18.94-28.81-.04-16.65-11.92-30.12-26.57-30.12h-.04ZM405.09,599.99c-120.3,0-172.29-220.82-174.3-229.23.24-75.25,27.42-146.64,72.64-190.91,18.44-16.61,48.48-37.6,86.11-43.17l33.59-.09c27.99,4.25,52.2,19.08,71.99,32.84,2.24,1.87,4.49,3.74,6.69,5.74l-.62.64,4.37,2.89c45.95,44.36,73.54,116.17,73.86,191.04-2.12,9.43-54.03,230.25-174.34,230.25v.02h0ZM206.15,374.62c.49,2.17,4.49,20.57,12.85,46.74-58.81-12.53-81.29-63.65-89.86-98.58,24.65,9.48,59.13,11.01,78.64,11.01h.33c-1.55,13.55-2.32,26.09-2.29,38.54l.33,2.3h0ZM601.14,325.37c19.63-.04,53.58-1.62,77.94-11.01-8.29,33.86-29.75,83.37-85.05,97.56,6.4-21.16,9.59-35.69,10-37.78l.24-2.42c0-15.43-1.06-30.98-3.15-46.36h0Z"/>
  <path class="st0" d="M263.04,296.44l-.83-.1-.74.34c-4.37,1.62-6.78,5.61-6.65,11.61,7.13,50.32,35.06,104.03,92.25,104.03h0c6.34,0,13.03-.79,19.8-2.12l4.02-.89-.44-4.62c-6.12-68.57-42.28-104.97-107.42-108.26h0Z"/>
  <path class="st0" d="M550.37,297.72c-37.73-3.39-70.26,8.95-89.93,33.35-15.61,19.48-22.47,45.7-19.8,75.95l.39,4.82,4.33-.3c63.48-4.13,104.27-44.66,109.12-108.41l.39-5.07-4.5-.34h0Z"/>
</svg>