<?xml version="1.0" encoding="UTF-8"?>
<svg id="_2" xmlns="http://www.w3.org/2000/svg" version="1.1" viewBox="0 0 749.12 799.99">
  <!-- Generator: Adobe Illustrator 29.5.0, SVG Export Plug-In . SVG Version: 2.1.0 Build 137)  -->
  <defs>
    <style>
      .st0 {
        fill: #fff;
      }
    </style>
  </defs>
  <path class="st0" d="M669.1,307.06c-3.32-9.68-8.7-17.67-14.48-24.81-4.36-5.35-9-10.24-13.62-14.88-6.91-6.95-13.7-13.39-19.17-19.49-5.51-6.05-9.57-11.69-11.58-16.33-1.95-4.42-4.36-10.27-7.29-17-5.1-11.81-11.7-26.3-20.61-41.43-6.69-11.36-14.65-23.11-24.33-34.41-14.48-16.93-32.85-32.87-56.05-44.51-23.21-11.66-51.15-18.82-83.86-18.79-33.22-.03-61.54,7.37-84.95,19.35-17.57,8.96-32.35,20.39-44.72,32.84-18.57,18.67-31.8,39.52-41.65,58.29-4.93,9.37-8.99,18.25-12.43,26.07-3.41,7.82-6.19,14.6-8.41,19.58-2.03,4.7-6.19,10.46-11.83,16.63-4.21,4.62-9.17,9.49-14.34,14.63-7.75,7.71-16.05,15.94-22.99,25.81-3.46,4.94-6.61,10.35-8.93,16.42-2.32,6.05-3.79,12.8-3.78,19.93,0,5.08.74,10.27,2.25,15.43,1.5,5.14,3.74,10.19,6.66,15.13,3.19,5.46,7.05,10.28,11.44,14.28,6.56,6.01,14.25,10.08,21.91,12.41,7.7,2.36,15.37,3.15,22.75,3.15,6.91,0,13.64-.68,20.1-1.64,9.68-1.43,18.86-3.44,27-5,8.13-1.58,15.28-2.61,20.07-2.59,3.06-.02,5.04.42,5.79.7l-1.59-.58,1.6.58c1.02.38,2.08.83,3.15,1.3.3.62.63,1.25.99,1.85,9.14,14.67,13.38,30.28,13.41,46.52,0,17.98-5.35,36.79-16.22,54.97-8.71,14.61-20.97,28.74-36.56,41.33,6.81,7.43,13.49,15.01,20.03,22.4,1.58,1.81,3.19,3.58,4.73,5.36,18.13-14.86,32.85-31.83,43.71-50.04,13.58-22.7,21.13-47.49,21.44-72.36.03-.55.03-1.1.03-1.66,0-7.17-.63-14.33-1.86-21.42,1.17.5,2.31,1.02,3.52,1.51,3.07,1.26,6.32,2.43,9.68,3.51.72,5.59,1.37,11.38,1.9,17.39v.06c1.06,11.96,1.7,24.71,1.7,37.79,0,23.02-1.97,47.11-6.91,69.93-3.66,17.07-9,33.49-16.25,48.26-2.73,5.56-5.7,10.86-8.97,15.94l31.37,19.9c.87-1.33,1.7-2.69,2.53-4.03,13.74-22.63,22.51-47.85,27.91-73.49,5.42-25.63,7.47-51.74,7.47-76.5,0-16.85-.97-33.02-2.52-48.01,3.81.26,7.7.42,11.76.42s7.98-.12,11.77-.38c.62,43.48,4.09,80.93,9.87,113.24,4.53,25.57,10.5,47.93,17.59,67.49,1.67,4.54,3.36,8.9,5.12,13.11-3.4,2.88-7.04,5.55-10.96,8.07-6.85,4.46-14.52,8.42-23.13,11.88-11.9,4.76-22.48,6.7-32.34,6.7-6.82,0-13.36-.94-19.8-2.7-2.66-.71-5.28-1.55-7.91-2.56-1.69-.64-3.39-1.35-5.08-2.15-6.2-2.75-12.35-6.26-18.5-10.46-4.3-2.92-8.6-6.18-12.87-9.72-3.36-2.75-6.72-5.71-10.03-8.73-6.01-5.52-11.97-11.5-17.92-17.76-4.68-4.9-9.35-9.99-14-15.16-2.94-3.3-5.91-6.61-8.86-9.95-8.21-9.32-16.49-18.77-24.88-27.89-3.06-3.31-6.11-6.58-9.19-9.8-1.43-1.47-2.87-2.95-4.3-4.37-10.58-10.65-21.55-20.58-33.38-28.8-11.84-8.19-24.64-14.77-38.77-18.18-9.96-2.38-20.01,3.77-22.4,13.76-2.38,9.96,3.77,19.97,13.72,22.4,7.29,1.72,14.87,5.16,22.75,10.22,8.25,5.28,16.8,12.36,25.46,20.65,3.62,3.42,7.23,7.09,10.89,10.89-3.42,1.01-6.9,1.84-10.38,2.59-1.55.36-3.12.64-4.72.93-9.81,1.81-19.76,2.82-29.75,3.55-8.7.68-17.38,1.21-26,2.05-6.48.64-12.92,1.49-19.35,2.83-9.63,2.03-19.32,5.2-28.34,10.82-4.5,2.82-8.81,6.23-12.68,10.26-3.89,4.04-7.36,8.68-10.3,13.85-5.1,8.89-2,20.26,6.91,25.34,8.91,5.08,20.27,2,25.38-6.92,2.42-4.22,4.92-6.99,7.87-9.3,2.57-1.98,5.58-3.61,9.29-5.01,6.45-2.45,15.16-3.99,25.55-4.95,15.61-1.59,34.79-1.99,55.7-5.54,7.94-1.37,16.14-3.24,24.48-5.83,2.65-.83,5.3-1.73,7.98-2.71,1.8-.67,3.6-1.38,5.43-2.13,3.07,3.44,6.13,6.96,9.24,10.46,1.67,1.84,3.31,3.71,4.99,5.56,10.21,11.34,20.75,22.7,31.99,33.21,3.34,3.12,6.76,6.21,10.25,9.18-3.81,2.53-7.82,4.93-12.05,7.12-2.37,1.23-4.84,2.4-7.36,3.52-18.07,7.87-40.15,12.63-67.53,12.63-10.61,0-22-.72-34.21-2.26-10.16-1.27-19.45,5.93-20.73,16.13-1.3,10.17,5.93,19.45,16.12,20.74,13.59,1.72,26.54,2.53,38.82,2.53,18.78,0,36.03-1.93,51.88-5.64,21-4.91,39.41-13.03,55.2-23.57,4.07-2.67,7.94-5.55,11.66-8.56,4.18,2.36,8.51,4.53,12.94,6.44,2.12.99,4.3,1.87,6.51,2.69,12.56,4.7,26.09,7.48,40.31,7.46,14.83.02,30.32-3,46.15-9.35,9.48-3.77,18.27-8.21,26.4-13.24,3.82-2.34,7.49-4.84,11-7.43,1.69,2.75,3.39,5.43,5.12,8,.72,1.06,1.45,2.11,2.16,3.11,9.24,13.06,19.27,23.78,29.72,32.43,11.28,9.34,23.06,16.22,34.79,21.05,9.47,3.89,20.31-.63,24.26-10.12,3.9-9.48-.64-20.33-10.11-24.25-11.13-4.6-22.52-11.78-33.65-22.99-5.97-5.99-11.84-13.16-17.5-21.76-2.27-3.44-4.53-7.11-6.74-11.03-.18-.35-.36-.66-.53-1.02-6.35-11.42-12.28-24.95-17.53-40.81-2.05-6.13-3.99-12.64-5.82-19.51-1.84-6.91-3.56-14.16-5.12-21.83-6.98-33.84-11.3-75.36-11.69-125.76,7.67-2.46,14.56-5.38,20.86-8.44,11.44,33.52,18.25,68.37,18.23,100.36,0,14.71-1.41,28.82-4.38,41.92-1.11,4.93-2.43,9.72-3.98,14.35v.03c5,17.93,11.05,33.92,18.07,47.72,6.15-9.51,11.15-19.61,15.07-30.14,8.68-23.19,12.37-48.24,12.37-73.87-.04-39.43-8.68-80.39-22.58-119.05.12-.07.27-.17.4-.23,4.77-2.71,9.08-4.85,13.14-6.33.78-.28,2.75-.7,5.8-.7s7.45.42,12.32,1.21c7.32,1.17,15.98,3.1,25.26,4.79,9.3,1.69,19.23,3.2,29.6,3.23,4.93,0,9.95-.35,15.05-1.27,7.64-1.38,15.51-4.13,22.71-8.91,7.21-4.74,13.54-11.45,18.34-19.65,2.91-4.93,5.16-9.99,6.65-15.13,1.51-5.14,2.25-10.35,2.25-15.43,0-6.31-1.15-12.38-3.04-17.89v-.03ZM634.23,329.96c-.56,1.89-1.49,4.12-3,6.72-1.51,2.53-2.99,4.32-4.5,5.7-2.25,2.04-4.6,3.34-7.76,4.32-3.15.97-7.13,1.53-11.82,1.5-4.4,0-9.4-.44-14.71-1.23-7.98-1.18-16.64-3.03-25.42-4.73-8.82-1.67-17.74-3.23-27.04-3.26-5.92,0-12.12.64-18.5,2.95-9.18,3.34-17.03,7.8-24.41,12.2-11.08,6.63-21.21,13.16-33.26,18.06-12.05,4.88-26.07,8.38-45.66,8.42-13.04,0-23.65-1.61-32.81-4.09-13.74-3.72-24.45-9.43-35.25-15.83-5.39-3.22-10.76-6.59-16.52-9.85-5.75-3.24-11.89-6.41-18.77-8.9l1.67.6-1.65-.6c-6.38-2.31-12.59-2.94-18.51-2.96-6.21,0-12.23.74-18.19,1.68-8.91,1.43-17.71,3.4-26.1,4.93-8.37,1.54-16.29,2.63-22.88,2.61-3.15,0-5.96-.23-8.42-.67-3.7-.69-6.49-1.78-8.86-3.34-2.37-1.61-4.54-3.7-6.8-7.52-1.54-2.6-2.47-4.83-3.03-6.72-.55-1.89-.75-3.49-.75-5,0-1.89.31-3.73,1.03-5.86,1.25-3.7,3.97-8.3,8.15-13.43,3.11-3.83,6.96-7.91,11.18-12.16,6.34-6.41,13.5-13.18,20.35-20.71,6.81-7.56,13.4-15.94,18-26.22,2.25-5.1,4.62-10.89,7.4-17.3,4.83-11.19,10.81-24.18,18.54-37.35,5.8-9.84,12.58-19.77,20.53-29.06,11.94-13.94,26.42-26.4,44.48-35.43,18.07-9.04,39.83-14.83,67.21-14.87,27.81.04,49.81,6.01,68.07,15.3,13.68,6.98,25.26,15.91,35.28,25.97,15,15.06,26.37,32.68,35.07,49.31,4.36,8.31,8.06,16.37,11.29,23.72,3.2,7.36,5.93,13.98,8.46,19.72,4.66,10.46,11.38,18.92,18.31,26.57,5.2,5.74,10.61,11.02,15.69,16.05,7.6,7.49,14.41,14.55,18.73,20.73,2.15,3.1,3.7,5.91,4.64,8.37.94,2.49,1.31,4.56,1.31,6.67,0,1.51-.17,3.11-.74,5v-.04Z"/>
  <path class="st0" d="M355.47,199.42c-12.44,0-22.54,10.1-22.54,22.54s10.1,22.55,22.54,22.55,22.55-10.1,22.55-22.55-10.1-22.54-22.55-22.54h0Z"/>
  <path class="st0" d="M495.76,199.42c-12.47,0-22.54,10.1-22.54,22.54s10.07,22.55,22.54,22.55,22.55-10.1,22.55-22.55-10.1-22.54-22.55-22.54h0Z"/>
</svg>