<?xml version="1.0" encoding="UTF-8"?>
<svg id="Layer_1" xmlns="http://www.w3.org/2000/svg" version="1.1" viewBox="0 0 800 733.33">
  <!-- Generator: Adobe Illustrator 29.5.0, SVG Export Plug-In . SVG Version: 2.1.0 Build 137)  -->
  <defs>
    <style>
      .st0 {
        fill: #fff;
      }
    </style>
  </defs>
  <path class="st0" d="M723.39,352.09c-5.22-22.06-17.66-40.52-34.09-50.69-12.06-7.42-25.73-9.78-38.65-6.79-1.14.28-2.93.82-5.08,1.52-23.67-57.16-60.68-99.16-107.7-127.29-3.98-2.39-8.01-4.64-12.07-6.78l7.93-21.33c5.22-14.07-1.94-29.69-16-34.93-14.07-5.22-29.69,1.94-34.93,16l-7.37,19.82c-9.13-2.69-18.33-4.9-27.54-6.65-7.39-1.4-14.33-2.44-20.74-3.19v-28.63c0-15-12.16-27.16-27.16-27.16s-27.16,12.16-27.16,27.16v29.54c-14.76,2.22-30.93,6.09-47.88,12.04l-7.28-22.02c-4.7-14.24-20.07-21.98-34.32-17.27-14.24,4.7-21.98,20.07-17.27,34.32l9.2,27.84c-4.67,2.7-9.35,5.56-14.03,8.6-9.74,6.33-19.03,13.24-27.87,20.71l-31.5-31.5c-10.61-10.61-27.8-10.61-38.41,0s-10.61,27.8,0,38.41l32.16,32.16c-25.91,32.86-45.49,73.17-57.41,121.39-6.73-1.05-8.73-1.06-9.87-1.06-32,0-54.33,29.93-54.33,72.77s22.33,72.75,54.33,72.75c2.06,0,5.26-.32,9.05-.82,7.75,28.65,20.41,55.72,37.89,79.83,45.15,62.22,115.01,92.71,224.68,92.71s175.98-37.26,224.67-104.35c27.85-38.42,43.52-84.35,46.46-132.25,1.49.04,2.8.07,3.94.07,5.44,0,7.31-.46,9.27-.92,31.32-7.47,48.45-44.39,39.06-84.05l-.02.02ZM611.7,370.84c-8.85,18.74-27.58,31.1-48.72,31.1-30,0-54.33-24.32-54.33-54.33s24.32-54.33,54.33-54.33c8.21,0,16.16,1.9,23.5,5.5,6.33,12.22,11.82,25.25,16.41,39.2.11.37.18.75.3,1.12,2.49,7.75,4.61,15.25,6.44,22.62.73,2.99,1.42,6.02,2.06,9.1h0ZM367.36,189.6c1.99-.46,3.9-.87,5.76-1.25,1.81,13.25,13.14,23.47,26.88,23.47,14.47,0,26.26-11.33,27.09-25.6,9.34,1.24,19.25,3.24,29.5,6.14l-.55,1.5c-5.22,14.07,1.94,29.69,16,34.93,13.82,5.13,29.15-1.69,34.63-15.28,1.11.64,2.22,1.28,3.32,1.94,12.08,7.24,23.33,15.64,33.68,25.27-24.59,4.42-46.31,17.09-62.18,35.07-19.91-22.57-49.02-36.82-81.49-36.82s-61.58,14.25-81.49,36.82c-11.61-13.16-26.35-23.49-43.08-29.81-.61-3.54-1.92-6.98-3.94-10.09,6.2-5.05,12.66-9.76,19.39-14.13.64-.42,1.28-.81,1.91-1.21,4.79,14.11,20.06,21.74,34.23,17.06,14.24-4.7,21.98-20.07,17.27-34.32l-2.14-6.48c8.36-2.88,16.78-5.28,25.2-7.21h0ZM454.33,347.63c0,30-24.32,54.33-54.33,54.33s-54.33-24.32-54.33-54.33,24.32-54.33,54.33-54.33,54.33,24.32,54.33,54.33h0ZM221.04,295.88c5.26-1.7,10.6-2.58,15.99-2.58,30,0,54.33,24.32,54.33,54.33s-24.32,54.33-54.33,54.33c-19.57,0-37.2-10.48-46.79-26.85,7.06-30.18,17.44-56.48,30.8-79.22h0ZM580.7,537.33c-38.59,53.18-93.4,81.92-180.7,81.92-93.32,0-146.57-23.24-180.71-70.28-17.03-23.49-28.26-50.84-33.39-79.9-.04-1.13-.12-2.27-.3-3.41-1.25-7.87-2.06-15.78-2.45-23.7,16.01,9.17,34.46,14.32,53.87,14.32,32.47,0,61.58-14.25,81.49-36.82,19.91,22.57,49.02,36.82,81.49,36.82s61.58-14.25,81.49-36.82c19.91,22.57,49.02,36.82,81.49,36.82,19.22,0,37.41-5.07,53.23-14.06-3.53,34.71-15.52,67.55-35.5,95.11h0Z"/>
  <path class="st0" d="M237.03,374.79c14.99,0,27.16-12.17,27.16-27.16s-12.17-27.16-27.16-27.16-27.16,12.17-27.16,27.16,12.17,27.16,27.16,27.16h0Z"/>
  <path class="st0" d="M372.84,347.63c0,14.99,12.17,27.16,27.16,27.16s27.16-12.17,27.16-27.16-12.17-27.16-27.16-27.16-27.16,12.17-27.16,27.16h0Z"/>
  <path class="st0" d="M562.98,320.47c-14.99,0-27.16,12.17-27.16,27.16s12.17,27.16,27.16,27.16,27.16-12.17,27.16-27.16-12.17-27.16-27.16-27.16Z"/>
  <path class="st0" d="M489.39,491.46c-1.1,1.11-3.65,3.47-7.47,6.67-6.58,5.5-14.07,11.03-22.29,16.18-37.97,23.79-75.36,30.46-109.15,12.17-5.08-2.75-10.13-6.09-15.12-10.03-11.78-9.3-28.86-7.29-38.15,4.48-9.3,11.78-7.29,28.86,4.48,38.15,7.42,5.86,15.08,10.92,22.93,15.17,54.2,29.34,110.98,19.21,163.85-13.91,17.96-11.25,31.46-22.56,39.46-30.59,10.58-10.64,10.52-27.84-.11-38.41-10.64-10.58-27.84-10.52-38.41.11h0Z"/>
</svg>