<?xml version="1.0" encoding="UTF-8"?>
<svg id="Layer_1" xmlns="http://www.w3.org/2000/svg" version="1.1" viewBox="0 0 708.66 708.66">
  <!-- Generator: Adobe Illustrator 29.5.0, SVG Export Plug-In . SVG Version: 2.1.0 Build 137)  -->
  <defs>
    <style>
      .st0 {
        fill: #fff;
      }

      .st1 {
        fill: none;
        stroke: #fff;
        stroke-miterlimit: 10;
        stroke-width: 46px;
      }
    </style>
  </defs>
  <path class="st1" d="M445.84,585.87c-24.65,0-44.7-18.87-44.7-42.06v-13.46c82.11-18.87,143.05-88.53,143.05-171.6,0-88.99-69.95-162.61-160.92-174.86v-25.39c16.03-8.73,26.82-25.02,26.82-43.7,0-27.87-24.01-50.48-53.64-50.48s-53.64,22.59-53.64,50.48c0,18.68,10.79,34.98,26.82,43.7v25.39c-90.98,12.25-160.92,85.85-160.92,174.85,0,83.06,60.94,152.73,143.05,171.6v13.46c0,23.19-20.05,42.06-44.7,42.06s-44.7-18.87-44.7-42.06h-53.63c0,51.02,44.12,92.53,98.34,92.53,39.63,0,73.85-22.2,89.4-54.06,15.56,31.86,49.76,54.06,89.41,54.06,56.07,0,98.34-43.4,98.34-100.94h-53.64c0,29.72-18.39,50.48-44.7,50.48h0ZM275.99,341.92c0-41.81,36.02-75.71,80.47-75.71s80.47,33.9,80.47,75.71-36.02,75.71-80.47,75.71-80.47-33.9-80.47-75.71h0ZM356.44,484.93c-19.75,0-35.77-15.06-35.77-33.65h71.51c0,18.58-16.01,33.65-35.77,33.65h.02Z"/>
  <ellipse class="st0" cx="354.58" cy="341.65" rx="30.48" ry="28.68"/>
</svg>