<?xml version="1.0" encoding="UTF-8"?>
<svg id="Layer_1" data-name="Layer 1" xmlns="http://www.w3.org/2000/svg" viewBox="0 0 56.69 56.69">
  <defs>
    <style>
      .cls-1 {
        stroke-linecap: round;
        stroke-linejoin: round;
      }

      .cls-1, .cls-2 {
        fill: none;
        stroke: #fff;
        stroke-width: 2px;
      }

      .cls-2 {
        stroke-miterlimit: 10;
      }
    </style>
  </defs>
  <g id="Generative_Object" data-name="Generative Object">
    <g>
      <path class="cls-1" d="M50.44,8.96c.33,11.78-.19,23.88-.07,35.68-1.8-.06-3.53-.8-5.33-.93-5.81-.43-11.18,2.55-16.28,5.86-2.49-1.02-4.83-2.79-7.33-3.92-4.9-2.21-9.61-2.62-14.61-.62v-.14c.16-11.97-.17-23.97.04-35.93.07-4.22-.66-4.02,2.81-5.19,6.68-2.25,13.08,1.05,18.98,5.06,5.84-4.14,12.21-7.24,18.87-5.06,3.39,1.11,2.79.93,2.91,5.19Z"/>
      <path class="cls-2" d="M6.87,8.96c-.21,11.97.12,23.96-.04,35.93v.14c4.99-2.01,9.71-1.59,14.61.62,2.5,1.13,4.84,2.9,7.33,3.92,5.11-3.31,10.47-6.3,16.28-5.86,1.8.13,3.53.87,5.33.93-.12-11.81.4-23.9.07-35.68h.54c1.1.31,3.6-.89,3.88,1.14l-.11,42.05-.65.43c-8.7.42-17.59-1.05-26.1,1.14l-2.91-1.14H3.2l-.67-.43c-.23-14.14-.26-28.48,0-42.63.53-1.06,2.89-.38,3.8-.57h.54Z"/>
    </g>
    <g>
      <line class="cls-1" x1="28.66" y1="8.92" x2="28.65" y2="36.12"/>
      <path class="cls-1" d="M6.33,8.95c-.9.19-3.27-.48-3.8.57-.26,14.14-.23,28.48,0,42.63l.67.43h21.89l2.91,1.14c8.5-2.19,17.4-.72,26.1-1.14l.65-.43.11-42.05c-.28-2.02-2.78-.82-3.88-1.14"/>
    </g>
  </g>
</svg>