<?xml version="1.0" encoding="UTF-8"?>
<svg id="Layer_1" xmlns="http://www.w3.org/2000/svg" version="1.1" viewBox="0 0 100 100">
  <!-- Generator: Adobe Illustrator 29.5.0, SVG Export Plug-In . SVG Version: 2.1.0 Build 137)  -->
  <defs>
    <style>
      .st0 {
        fill: none;
        stroke: #fff;
        stroke-miterlimit: 10;
        stroke-width: 2px;
      }
    </style>
  </defs>
  <path class="st0" d="M96.47,14H3.54c-1.19,0-2.16.97-2.16,2.16v63.21c0,.08.03.14.11.22s.11.14.11.22c0,.11.11.11.11.22s.11.11.11.22v.11l.11.11.11.11.11.11s.11.11.22.11.11.11.22.11.11.11.22.11.11,0,.22.11h94c.11,0,.22-.11.32-.11l.11-.11c.11,0,.22-.11.22-.22l.11-.11.22-.22.11-.11v-.11c0-.11.11-.11.11-.22,0,0,.11-.11.11-.22s0-.11.11-.22,0-.11.11-.22V16.16c.11-1.19-.86-2.16-2.05-2.16h0ZM5.7,28.15l29.17,23.12-29.17,23.12V28.15ZM9.81,76.67l28.63-22.69,10.26,8.1c.43.32.86.43,1.3.43s.97-.11,1.3-.43l10.26-8.1,28.63,22.69H9.81ZM94.3,74.4l-29.17-23.12,29.17-23.12v46.25ZM94.3,22.64l-1.3,1.08-43,34.04L7,23.72l-1.3-1.08v-4.32h88.6v4.32Z"/>
</svg>