<?xml version="1.0" encoding="UTF-8"?>
<svg id="Layer_1" xmlns="http://www.w3.org/2000/svg" version="1.1" viewBox="0 0 50 50">
  <!-- Generator: Adobe Illustrator 29.5.0, SVG Export Plug-In . SVG Version: 2.1.0 Build 137)  -->
  <defs>
    <style>
      .st0 {
        fill: none;
        stroke: #fff;
        stroke-miterlimit: 10;
      }
    </style>
  </defs>
  <g id="Layer_11" data-name="Layer_1">
    <path class="st0" d="M44,1H6C3.24,1,1,3.24,1,6v38c0,2.76,2.24,5,5,5h21v-19h-6v-6h6v-4c0-6.07,4.93-11,11-11h3v6h-3c-2.76,0-5,2.24-5,5v4h7.87l-.75,6h-7.12v19h11c2.76,0,5-2.24,5-5V6c0-2.76-2.24-5-5-5ZM47,44c0,1.65-1.35,3-3,3h-9v-15h6.88l1.25-10h-8.13v-2c0-1.65,1.35-3,3-3h5V7h-5c-7.17,0-13,5.83-13,13v2h-6v10h6v15H6c-1.65,0-3-1.35-3-3V6c0-1.65,1.35-3,3-3h38c1.65,0,3,1.35,3,3v38Z"/>
  </g>
</svg>