<?xml version="1.0" encoding="UTF-8"?>
<svg id="Layer_1" xmlns="http://www.w3.org/2000/svg" version="1.1" viewBox="0 0 20 20">
  <!-- Generator: Adobe Illustrator 29.5.0, SVG Export Plug-In . SVG Version: 2.1.0 Build 137)  -->
  <defs>
    <style>
      .st0 {
        fill: none;
        stroke: #fff;
        stroke-miterlimit: 10;
        stroke-width: .5px;
      }
    </style>
  </defs>
  <g id="Page-1">
    <g id="Dribbble-Light-Preview">
      <g id="icons">
        <path id="instagram-_x5B__x23_167_x5D_" class="st0" d="M6.16,1.01c-1.52.07-2.83.44-3.89,1.49-1.06,1.06-1.43,2.38-1.5,3.88-.04.94-.29,8.01.43,9.86.49,1.25,1.45,2.21,2.71,2.7.59.23,1.26.38,2.25.43,8.25.37,11.3.17,12.59-3.13.23-.59.39-1.26.43-2.24.38-8.27-.06-10.06-1.5-11.5-1.14-1.14-2.48-1.91-11.53-1.49M6.23,17.71c-.9-.04-1.39-.19-1.72-.32-.82-.32-1.44-.93-1.76-1.75-.55-1.41-.37-8.1-.32-9.18.05-1.06.26-2.03,1.01-2.78.93-.92,2.12-1.38,10.27-1.01,1.06.05,2.03.26,2.78,1.01.93.92,1.39,2.13,1.01,10.25-.04.9-.19,1.39-.32,1.72-.84,2.15-2.77,2.45-10.96,2.07M13.81,5.26c0,.61.5,1.11,1.11,1.11s1.11-.5,1.11-1.11-.5-1.11-1.11-1.11-1.11.5-1.11,1.11M5.22,10.19c0,2.62,2.13,4.74,4.76,4.74s4.76-2.12,4.76-4.74-2.13-4.74-4.76-4.74-4.76,2.12-4.76,4.74M6.89,10.19c0-1.7,1.38-3.08,3.09-3.08s3.09,1.38,3.09,3.08-1.38,3.08-3.09,3.08-3.09-1.38-3.09-3.08"/>
      </g>
    </g>
  </g>
</svg>