<?xml version="1.0" encoding="UTF-8"?>
<svg id="Layer_1" data-name="Layer 1" xmlns="http://www.w3.org/2000/svg" viewBox="0 0 56.69 56.69">
  <defs>
    <style>
      .cls-1 {
        stroke-linecap: round;
        stroke-linejoin: round;
      }

      .cls-1, .cls-2 {
        fill: none;
        stroke: #fff;
        stroke-width: 2px;
      }

      .cls-2 {
        stroke-miterlimit: 10;
      }
    </style>
  </defs>
  <g id="Generative_Object" data-name="Generative Object">
    <g>
      <path class="cls-2" d="M10.88,5.56c.35-.04.72-.02,1.05.12,2.08.9,6.02,6.91,8.16,8.64.25.21.34.29.67.35.32.06,5.06-1.08,6.27-1.14,2.93-.14,5.64.53,8.48,1.09l8.25-8.74c1.83-.82,3.14-.21,3.44,1.81.65,4.36-.87,11.64-.02,15.68.73,3.49,3.37,7.05,2.2,11.3v.13c-.08.01-.16.02-.24.03.17.22.03.41-.02.64-.21.97-.58,1.91-.8,2.87l-.2.5-.08-.02.08.02c.13.11-.01.2-.04.3-.01.04-.05.07-.07.11-6.08,12.98-29.01,13.76-37.78,3.33-.04-.05-.09-.11-.13-.16-.01-.01,0-.05,0-.06l.04-.05-.04.05c-.12-.15-.25-.31-.37-.46-.62-.84-1.11-1.99-1.61-2.91l-.11-.06-.03-.11-1.08-3.87-.03-.11-.12-.02.1-.1c-1.36-4.27,1.29-7.78,2.06-11.34.88-4.09-.87-11.8,0-15.92.24-1.15.73-1.78,1.98-1.91Z"/>
      <path class="cls-1" d="M18.27,25.43c.21-.06.42-.1.63-.11,3.33-.16,3.95,4.75.66,5.4s-4.58-4.31-1.29-5.28Z"/>
      <path class="cls-1" d="M36.14,25.47s.08-.03.12-.04c.24-.07.5-.12.76-.12,3.26,0,3.75,4.77.53,5.4s-4.58-4.13-1.41-5.24c.04-.01.08-.03.12-.04-.04.01-.08.03-.12.04Z"/>
      <path class="cls-1" d="M26.33,34.26c.43-.06,3.79-.04,4.07.05,3,.9-1.56,3.49-2.35,4.45-1.31-1.12-5.7-3.97-1.72-4.49Z"/>
    </g>
    <g>
      <path class="cls-1" d="M49.11,35.48c-.21.97-.58,1.91-.8,2.87"/>
      <path class="cls-1" d="M6.86,34.84v-.12c-1.37-4.27,1.28-7.78,2.04-11.34.88-4.09-.87-11.8,0-15.92.24-1.15.73-1.78,1.98-1.91.35-.04.72-.02,1.05.12,2.08.9,6.02,6.91,8.16,8.64.25.21.34.29.67.35.32.06,5.06-1.08,6.27-1.14,2.93-.14,5.64.53,8.48,1.09l8.25-8.74c1.83-.82,3.14-.21,3.44,1.81.65,4.36-.87,11.64-.02,15.68.73,3.49,3.37,7.05,2.2,11.3v.13"/>
      <polyline class="cls-1" points="6.86 34.84 6.74 34.82 1.36 33.98"/>
      <polyline class="cls-1" points="6.86 34.84 6.89 34.96 7.97 38.83 8 38.95"/>
      <line class="cls-1" x1="49.36" y1="34.82" x2="54.44" y2="34.11"/>
      <path class="cls-1" d="M49.36,34.82c-.08.01-.16.02-.23.03-1.61.33-3.29.39-4.9.7"/>
      <line class="cls-1" x1="7.52" y1="35.05" x2="11.69" y2="35.67"/>
      <line class="cls-1" x1="8" y1="38.95" x2="1.35" y2="39.21"/>
      <line class="cls-1" x1="47.59" y1="39.19" x2="54.91" y2="39.06"/>
      <path class="cls-1" d="M12.16,38.68l-4.05.32c.5.92.99,2.07,1.61,2.91"/>
      <path class="cls-1" d="M43.76,38.7l4.27.13.08.02c.13.11-.01.2-.04.3l-.07.11c-6.08,12.98-29.01,13.76-37.78,3.33l-.13-.16s0-.05,0-.06l.04-.05,3.18-.7"/>
      <line class="cls-1" x1="10.53" y1="42.44" x2="1.71" y2="44.18"/>
      <line class="cls-1" x1="46.56" y1="42.46" x2="54.44" y2="44.19"/>
      <line class="cls-1" x1="45.26" y1="42.19" x2="42.73" y2="41.61"/>
      <path class="cls-1" d="M27.92,43.06c2.29,1.74,5.29,1.65,5.67-1.76"/>
      <path class="cls-1" d="M27.92,43.06c-2.23,1.89-5.08,1.46-5.49-1.76"/>
      <line class="cls-1" x1="28.05" y1="38.75" x2="27.92" y2="43.06"/>
    </g>
  </g>
</svg>