<?xml version="1.0" encoding="UTF-8"?>
<svg id="Layer_1" xmlns="http://www.w3.org/2000/svg" version="1.1" viewBox="0 0 50 50">
  <!-- Generator: Adobe Illustrator 29.5.0, SVG Export Plug-In . SVG Version: 2.1.0 Build 137)  -->
  <defs>
    <style>
      .st0 {
        fill: none;
        stroke: #fff;
        stroke-miterlimit: 10;
      }
    </style>
  </defs>
  <g id="Layer_11">
    <path class="st0" d="M45.04,11.54c.55-.8.99-1.68,1.28-2.62l.79-2.52-2.26,1.37c-1.4.85-2.91,1.47-4.5,1.84-2.15-2.07-5.15-2.99-8.13-2.47-4,.7-7.15,4.05-7.67,8.14-.09.73-.11,1.45-.05,2.16-5.99-.64-11.54-3.69-15.38-8.49l-.92-1.15-.73,1.28c-.83,1.45-1.27,3.12-1.27,4.81,0,1.9.55,3.73,1.55,5.27-.04-.02-.08-.04-.12-.07l-1.47-.83-.02,1.69c-.04,3.02,1.31,5.78,3.5,7.58l-1.01-.19.5,1.6c.95,3.04,3.31,5.34,6.2,6.24-2.91,1.69-6.33,2.39-9.72,1.98l-4.24-.51,3.58,2.34c4.02,2.63,8.67,4.02,13.44,4.02,15.61,0,24.93-12.93,24.93-25.42v-.63c1.56-1.23,2.91-2.69,4.02-4.38l1.89-2.88-3.13,1.42c-.35.16-.69.3-1.05.43h0ZM41.71,15.66l-.43.32.02.53c.02.35.02.71.02,1.07,0,14.66-11.66,23.42-22.93,23.42-3.08,0-6.1-.63-8.91-1.84,3.32-.37,6.43-1.66,9.1-3.79l2.16-1.73-2.77-.05c-2.64-.05-5.02-1.53-6.3-3.81h0c.84,0,1.68-.11,2.48-.34l3.99-1.11-4.06-.83c-2.97-.61-5.23-3-5.8-5.95.85.28,1.74.45,2.63.48l3.44.11-2.84-1.94c-2.07-1.41-3.31-3.77-3.31-6.32,0-.84.14-1.68.4-2.47,4.41,4.85,10.53,7.78,17.02,8.12l1.32.07-.29-1.29c-.2-.89-.25-1.83-.13-2.78.41-3.23,2.89-5.87,6.03-6.42,2.5-.44,5.01.41,6.72,2.27l.38.41.55-.11c.96-.19,1.9-.47,2.81-.81-.53.65-1.17,1.2-1.89,1.65l-3.93,2.4,4.57-.56c.6-.07,1.2-.18,1.78-.31-.58.58-1.2,1.12-1.86,1.6h.03Z"/>
  </g>
</svg>