<?xml version="1.0" encoding="UTF-8"?>
<svg id="Layer_1" data-name="Layer 1" xmlns="http://www.w3.org/2000/svg" viewBox="0 0 56.69 56.69">
  <defs>
    <style>
      .cls-1 {
        fill: none;
        stroke: #fff;
        stroke-linecap: round;
        stroke-linejoin: round;
        stroke-width: 2px;
      }
    </style>
  </defs>
  <g id="Generative_Object" data-name="Generative Object">
    <g>
      <path class="cls-1" d="M54.24,27.31l-.15.02c-.14,0-.29.05-.44.05-4.03-.13-10.18,1.78-13.58,4.38-7,5.33-9.45,13.88-10.13,23.28l.12.16c11.05-.1,19.79-6.7,22.88-19.81.63-2.66.66-5.43,1.28-8.08Z"/>
      <path class="cls-1" d="M26.02,55.06l-.02-.18c-.41-16.32-10.23-27.95-23.98-27.4.1,15.97,10.37,28.38,23.85,27.57h.15Z"/>
      <path class="cls-1" d="M27.99,1.74l-.11.13c-.03.05-.07.1-.11.13-.69.47-2.54,3.36-3.09,4.29-5.97,10.11-4.74,22.37,3.26,30.31h.21c9.45-9.48,8.77-25.26-.17-34.85Z"/>
    </g>
    <g>
      <line class="cls-1" x1="26.02" y1="55.06" x2="12.05" y2="38.73"/>
      <line class="cls-1" x1="28.06" y1="36.76" x2="27.91" y2="14.39"/>
      <line class="cls-1" x1="29.9" y1="55.24" x2="44.21" y2="38.39"/>
    </g>
  </g>
</svg>